<?xml version="1.0" encoding="UTF-8"?><svg id="Layer_2" xmlns="http://www.w3.org/2000/svg" viewBox="0 0 648.29 241.54"><defs><style>.cls-1{fill:#f26522;}.cls-2{fill:#0e75bc;}.cls-3{fill:#faae81;}</style></defs><g id="Color"><path class="cls-2" d="M612.24,120.77c0,51.11-32.2,89.61-81.56,89.61s-81.56-38.51-81.56-89.61,31.5-89.61,81.56-89.61,81.56,38.16,81.56,89.61m-199.18,0c0,69.31,47.96,120.77,117.62,120.77s117.62-51.46,117.62-120.77S600.33,0,530.67,0s-117.62,51.46-117.62,120.77m-211.08,83.66c19.95,22.05,50.41,37.11,92.06,37.11,63.01,0,88.21-33.96,88.21-70.36,0-49.71-44.46-61.61-82.61-71.76-29.06-7.35-54.26-14-54.26-35,0-19.6,17.85-32.91,43.76-32.91s49.71,8.4,67.56,27.3l20.3-25.9C356.35,11.9,328,.35,291.94,.35c-48.66,0-82.61,28-82.61,66.51,0,47.61,43.41,58.46,80.86,68.26,29.75,7.7,56.36,14.7,56.36,39.21,0,16.8-13.3,36.06-51.11,36.06-32.55,0-57.76-15.4-73.51-32.91l-19.95,26.95ZM137.22,75.61c0,24.5-18.2,40.96-43.41,40.96H35.01V34.66h58.81c25.2,0,43.41,16.45,43.41,40.96m-2.8,161.72h40.61l-59.86-93.46c29.75-3.85,58.11-26.25,58.11-68.26S142.82,3.85,98.36,3.85H0V237.33H35.01v-89.96h43.76l55.66,89.96Z"/><path class="cls-1" d="M538.63,119.78c.4-5,4.22-9.3,9.52-9.4,5.82-.11,9.83,4.74,10.07,9.86,.17,3.86-5.17,8.98-9.13,8.8-6.24-.28-9.62-3.35-10.45-9.27"/><path class="cls-1" d="M526.61,110.09c2.67,.58,5.11,1.16,6.98,3.17,1.41,1.53,2.18,3.35,2.94,5.2,.64,1.56-.08,2.95-.7,4.34-1.45,3.22-3.71,5.65-7.36,6.36-1.21,.24-2.59-.2-3.86-.45-4.7-.93-6.29-4.11-6.97-7.43-.88-4.25,1.09-7.77,5.15-9.85,1.19-.61,2.57-.9,3.83-1.33"/><path class="cls-1" d="M548.32,149.43c-4.31,.16-9.76-4.09-9.63-9.15,.1-4.14,4.46-9.27,10.04-9.26,4.18,0,9.21,4.3,9.17,8.71-.05,5.29-4.16,9.14-9.58,9.7"/><path class="cls-1" d="M548.82,108.52c-5.89,.24-10.07-5.36-10.1-9.14-.04-4.6,3.97-9.51,10.94-9.13,1.73,.1,3.59,1.43,5.03,2.62,2.17,1.8,3.16,4.32,3.16,7.15,0,3.91-5.05,8.85-9.02,8.49"/><path class="cls-1" d="M526.97,149.39c-6.02-.48-9.86-5.92-9.53-9.88,.38-4.49,5.38-8.7,9.75-8.45,5.22,.3,9.6,5.47,9.47,9.3-.17,5.23-5.47,9.46-9.7,9.03"/><path class="cls-1" d="M526.91,108.48c-4.91,.08-9.05-4.14-9.43-8.32-.31-3.45,1.48-6.21,4.47-8.18,1.58-1.04,3.2-1.83,5.2-1.83,3.08,0,5.45,1.45,7.3,3.58,5.25,6.04,.24,13.13-5.69,14.59-.59,.14-1.22,.12-1.84,.17"/><path class="cls-1" d="M515.27,119.99c0,4.66-4.54,9.22-9.3,9.07-4.37-.14-9.12-4.6-8.88-9.35,.27-5.25,3.89-8.83,9.05-9.21,4.65-.34,9.13,4.58,9.13,9.49"/><path class="cls-1" d="M507.05,148.68c-3.43,0-7.3-2.99-8.74-6.07-1.63-3.5-.85-6.46,1.62-8.97,2.69-2.73,5.57-4.04,10.29-1.57,2.76,1.45,4.34,3.72,5.07,6.44,1.44,5.33-3.73,10.47-8.25,10.17"/><path class="cls-1" d="M559.87,99.54c0-4.14,2.11-6.52,5.24-7.87,3.39-1.46,6.67-.78,9.41,1.76,2.05,1.9,3.39,4.29,3.36,6.98-.04,4.26-4.49,9.32-10,8.17-4.62-.96-8.28-5.76-8.02-9.05"/><path class="cls-1" d="M515.47,98.94c.11,3.88-1.96,6.51-5.17,8.41-5.08,3-8.7,.74-11.18-2.25-2.44-2.94-2.13-7.57,.55-10.32,1.08-1.1,2.28-2.13,3.59-2.94,2.51-1.56,5.06-1.57,7.64,.07,2.68,1.7,4.54,3.79,4.56,7.04"/><path class="cls-1" d="M567.81,148.71c-2.36-.09-4.28-1.22-5.64-2.91-3.4-4.2-2.9-9.2,1.34-12.68,1.43-1.17,3.37-2.15,5.18-2.37,2.15-.25,4.38,.64,6.03,2.16,2.28,2.1,3.75,4.7,2.99,7.82-1.08,4.43-5.4,8.31-9.9,7.97"/><path class="cls-3" d="M527.89,71.88c3.61,.04,6.94,2.3,8.13,5.33,1.38,3.53-.06,7.25-3.34,9.35-2.32,1.49-4.71,2.49-7.46,1.78-3.26-.84-5.84-2.71-6.93-5.91-.75-2.23-.14-4.32,1.39-6.24,2.17-2.73,4.81-4.41,8.2-4.31"/><path class="cls-1" d="M536.91,159.39c-.46,3.34-1.92,5.52-4.46,6.99-3.45,2-7.04,1.86-10.13-.4-5.25-3.85-6.29-9.54,.09-13.6,4.8-3.06,11.01-.29,13.29,3.93,.58,1.08,.91,2.29,1.21,3.08"/><path class="cls-2" d="M557.26,159.52c.33,1.69-.83,3.05-1.84,4.27-2.7,3.24-6.21,4.65-10.52,3.44-2.65-.74-4.27-2.56-5.63-4.84-1.9-3.18,.56-7.18,2.98-9.08,2.43-1.91,5.24-2.95,8.24-1.98,3.86,1.25,6.74,3.37,6.76,8.18"/><path class="cls-3" d="M516.17,79.94c0,3.49-1.84,5.92-4.81,7.65-.78,.45-1.59,.87-2.44,1.18-4.65,1.68-9.55-1.72-10.26-6.18-.29-1.82,.4-3.66,1.67-5.08,1.1-1.23,2.32-2.41,3.69-3.35,2.1-1.45,4.5-1.48,6.97-.89,2.66,.64,5.17,3.8,5.19,6.67"/><path class="cls-1" d="M516.26,159.72c.28,3.72-4.46,7.45-8.58,6.89-3.83-.52-6.13-2.88-8.07-5.63-2.1-3-.95-6.88,2.35-9.07,3.13-2.08,5.89-2.06,9.14-.11,2.26,1.36,3.99,3.09,4.75,5.61,.22,.75,.28,1.54,.41,2.31"/><path class="cls-2" d="M559.04,160.35c.27-4.6,2.65-7.16,6.18-9.02,5.12-2.7,10.58,.65,11.42,5.49,.34,1.94-.42,3.69-1.7,5.31-1.27,1.62-2.72,2.89-4.64,3.71-4.26,1.82-7.86,.44-10.29-3.21-.53-.8-.78-1.79-.98-2.28"/><path class="cls-1" d="M494.87,120.04c.46,3.22-1.39,5.45-3.85,7.42-1.23,.98-5.42,1.11-7,.16-2.92-1.76-4.21-4.35-4.61-7.35-.23-1.7,.03-3.56,1.44-5,1.01-1.04,1.78-2.33,2.9-3.23,1.96-1.57,5.29-1.36,7.4,.09,2.87,1.97,3.89,4.53,3.74,7.92"/><path class="cls-2" d="M495.74,140.91c-.1,2.35-1.64,4.95-4.92,6.24-2.29,.9-4.52,.54-7.2-1.89-2.66-2.41-3.88-5.32-3.45-8.77,.23-1.84,1.38-3.34,2.82-4.56,2.59-2.19,4.48-2.33,7.41-.61,3.48,2.04,5.34,5,5.34,9.58"/><path class="cls-1" d="M495.79,99.82c-.27,4.75-3.92,9.01-8.93,9.58-1.86,.21-3.3-1.1-4.48-2.36-3.33-3.55-2.96-7.74-.18-11.2,1.03-1.28,2.39-2.43,3.85-3.23,2.07-1.14,4.27-.81,6.23,.54,2.37,1.64,3.35,3.98,3.51,6.66"/><path class="cls-3" d="M546.76,56.51c4.29,0,7.3,2.08,9.13,5.7,.46,.91,.4,2.35,0,3.32-.49,1.19-1.4,2.39-2.46,3.14-1.19,.85-2.71,1.54-4.16,1.71-4.75,.56-8.17-1.58-10.29-5.62-.66-1.27-.95-2.77,.27-4.05,.8-.84,1.49-1.81,2.4-2.51,2.09-1.61,2.42-1.65,5.1-1.68"/><path class="cls-2" d="M527.87,169.02c2.8-.39,7.78,2.91,8.65,6.13,.35,1.27,.44,2.53-.38,3.79-3.19,4.89-8.22,4.83-11.97,3.21-2.25-.97-3.94-2.81-4.86-5.04-.37-.89-.28-2.21,.14-3.09,1.57-3.28,4.31-4.98,8.42-5"/><path class="cls-3" d="M536.79,62.97c-.25,3.12-2.28,5.01-4.9,6.41-3.93,2.11-7.57,1.12-10.97-1.24-2.02-1.41-2.32-5.03-.72-7.27,2.67-3.74,7.2-5.32,11.64-3.87,2.36,.77,5.06,3.4,4.95,5.97"/><path class="cls-2" d="M547.2,183.16c-4.26-.21-6.79-1.99-8.34-4.94-.76-1.43-.17-3.01,.62-4.41,2.27-4.02,8.98-6.66,13.61-3.14,2.98,2.27,4.12,4.78,2.58,7.37-1.19,1.99-2.92,3.54-5.21,4.32-1.26,.43-2.6,.65-3.25,.8"/><path class="cls-3" d="M514.84,46.28c.98,.54,1.72,1.06,2.54,1.4,1.74,.71,1.72,3.33,.9,4.38-1.65,2.08-3.58,4-6.28,4.5-2.4,.44-5.01,1.1-7.24-.79-1.59-1.34-1.64-3.13-.32-4.73,2.06-2.48,4.81-3.69,7.86-4.66-1.15,0-2.3,.06-3.45-.02-.9-.06-1.92-.33-1.87-1.39,.03-.65,.5-1.58,1.06-1.86,1.96-.99,4.02-1.8,6.07-2.6,1.78-.69,3.61-1,5.5-.36,1.25,.42,1.61,1.89,.56,2.69-1.16,.88-2.48,1.55-3.72,2.33-.5,.32-.99,.66-1.63,1.09"/><path class="cls-1" d="M487.99,90.51c-3.12,.3-6.52-2.93-6.09-6.8,.4-3.59,5.16-8.96,9.16-8.9,3.52,.05,6.39,3.19,6.01,6.6-.52,4.69-3.39,7.4-7.74,8.96-.18,.06-.37,.13-.56,.15-.32,.02-.65,0-.79,0"/><path class="cls-2" d="M488.6,148.97c.88,.41,2.48,1,3.91,1.87,3.11,1.89,5.2,5.98,4.4,9.34-1.04,4.38-5.81,5.64-9.27,3.56-2.97-1.79-5.13-4.23-5.69-7.8-.55-3.47,2.22-6.86,6.65-6.97"/><path class="cls-2" d="M587.77,149.16c3.81,.01,6.7,3.75,5.54,7.57-1.18,3.87-3.72,6.73-7.89,7.88-2.53,.7-5.92-1.3-6.78-3.72-1.16-3.26,.25-5.81,2.17-8.25,1.75-2.23,4.05-3.45,6.97-3.47"/><path class="cls-3" d="M507.64,71.61c-2.73,.2-4.62-1.15-6.18-3.05-1.21-1.48-1.01-3.82,.4-5.7,2.36-3.16,5.42-5.01,9.57-5,3.27,.01,6.47,3.25,5.94,5.82-.27,1.28-.79,2.68-1.64,3.66-2.09,2.4-4.74,4.04-8.09,4.27"/><path class="cls-2" d="M511.47,181.68c-4.84-.16-8.17-2.18-10.09-5.92-1.54-3.01-1.03-4.31,1.98-6.46,2.78-1.99,6.7-1.81,9.37,.4,1.3,1.08,2.58,2.25,3.61,3.57,2.45,3.14,.52,6.67-2.84,7.93-.77,.29-1.62,.39-2.04,.48"/><path class="cls-2" d="M465.79,118.97c-.43-2.96,1.08-5.29,3.72-7,2.5-1.61,4.43-.54,6.08,1.66,.8,1.06,1.45,2.22,2.12,3.36,.19,.31,.37,.71,.34,1.04-.18,1.8-.09,3.71-.73,5.35-.91,2.35-2.55,4.4-5.4,4.73-.83,.1-1.9-.44-2.63-.97-2.48-1.82-3.75-4.26-3.51-7.35,.01-.19,0-.38,0-.83"/><path class="cls-1" d="M478.83,100.46c-.45,3.59-1.65,6.64-4.77,8.71-1.98,1.32-4.87,.79-6.2-1.14-2.69-3.9-1.86-9.44,1.88-12.51,.49-.4,.94-.88,1.49-1.19,2.9-1.68,6.06,.53,7.09,3.54,.29,.85,.35,1.78,.5,2.59"/><path class="cls-2" d="M466.41,135.95c-.57-2.14,.98-3.66,2.13-5.31,1-1.43,4.66-1.14,6.36,.43,3.15,2.92,4.55,6.37,3.45,10.58-.64,2.44-3.36,4.46-5.48,4.09-2.23-.39-3.5-1.99-4.73-3.62-1.35-1.8-1.95-3.81-1.73-6.17"/><path class="cls-3" d="M484.83,69.82c0-3.22,2.07-5.01,3.99-6.96,1.81-1.84,4.12-2.08,6.49-2.3,2.63-.24,4.35,2.44,3.91,4.66-.85,4.3-3.73,6.87-7.77,8.19-3.8,1.24-6.07-.48-6.62-3.6"/><path class="cls-2" d="M494.67,178.9c-2.9,.25-5.07-1.52-7.19-3.43-1.38-1.25-2.13-2.79-2.62-4.52-.61-2.14,1.64-5.11,3.93-5.11,4.72,0,7.7,2.66,9.83,6.31,.67,1.15,1.21,2.66,.42,4.22-1.07,2.11-1.59,2.54-4.36,2.54"/><path class="cls-3" d="M547.63,55.43c-3.05,.04-5.64-.93-7.75-3.1-1.94-2.01-1.74-4.38,.67-5.81,4.55-2.71,10.09-1.48,13.46,1.87,1.6,1.59,1.22,4.27-.92,5.45-1.64,.91-3.56,1.34-5.35,1.99-.04-.13-.08-.26-.12-.39"/><path class="cls-3" d="M528.03,55.52c-1.4-.23-2.87-.27-4.18-.73-1.75-.61-3.16-2.03-3.41-3.72-.24-1.59,.99-3.04,2.38-3.99,2.5-1.72,5.27-2.32,8.36-1.86,1.84,.28,3.44,.77,4.69,2.14,1.32,1.45,1.35,3.38-.04,4.76-2.13,2.1-4.61,3.45-7.79,3.39"/><path class="cls-1" d="M468.52,87.83c.23-2.66,1.17-5.06,3.01-7.06,1.01-1.1,1.93-2.21,3.53-2.79,2.8-1.03,5.32,.85,5.57,3.06,.55,4.82-2.11,9.09-6.68,11.2-2.55,1.18-4.84-.67-5.42-3.46-.06-.3,0-.63,0-.94"/><path class="cls-2" d="M468.49,151.59c-.23-2.03,.81-3.43,2.51-4.24,1.56-.73,3.04-.09,4.42,.85,2.02,1.37,3.68,3.06,4.5,5.28,.72,1.96,1.54,4.05,.31,6.14-1.5,2.54-4.2,3.06-6.78,1.07-2.99-2.3-4.71-5.37-4.96-9.11"/><path class="cls-2" d="M546.04,194.52c-1.27-.23-2.86-.27-4.23-.81-2.72-1.08-4.72-3.73-1.8-6.71,2.93-2.99,8.79-3.76,12-1.91,1.54,.89,3.17,1.85,2.89,4.05-.19,1.53-1.3,2.4-2.39,3.28-1.8,1.45-3.99,1.83-6.48,2.11"/><path class="cls-2" d="M530.02,194.59c-4.26-.39-7.34-1.36-9.23-4.49-.75-1.24-.38-2.7,.98-3.9,3.93-3.46,11.36-2.52,14.41,1.78,1.3,1.83,.87,3.86-1.51,5.12-1.62,.86-3.57,1.15-4.65,1.48"/><path class="cls-3" d="M567.2,57.03c-4.19,.22-7.34-1.64-9.93-4.63-1.73-1.99-.62-4.61,2.33-5.48,2.21-.65,4.29,.04,6.37,.67,2.12,.65,3.68,2.04,5.07,3.64,.85,.98,1.22,2.14,.62,3.34-.58,1.17-1.47,2.07-2.92,2.23-.51,.06-1.02,.15-1.53,.22"/><path class="cls-2" d="M571.9,186.91c-.42,.58-1.03,1.64-1.85,2.52-1.98,2.13-4.67,2.94-7.45,3.53-1.82,.39-4.63-.7-5.7-2.19-.76-1.05-.48-2.56,.59-3.8,3.07-3.58,7-4.87,11.65-4.03,1.51,.27,2.77,1.43,2.76,3.97"/><path class="cls-2" d="M514.18,192.81c-4.11,0-7.53-1.42-9.99-4.68-.85-1.13-1.06-2.81,.32-4.07,2.42-2.2,5.13-1.55,7.76-.89,2.05,.51,3.74,1.78,5.18,3.35,1.1,1.2,2.02,2.53,1.22,4.05-.74,1.4-2.16,2.22-3.91,2.24-.19,0-.39,0-.58,0"/><path class="cls-2" d="M456.01,120.88c.11-3.7,.66-6.15,2.61-8.1,1.01-1.01,1.96-.97,3.06-.02,1.87,1.61,2.74,3.6,2.59,6.03-.06,.97-.14,1.96-.04,2.92,.23,2.32-1.19,3.83-2.67,5.29-.92,.91-2.61,.56-3.52-.73-1.37-1.94-2.15-4.08-2.02-5.39"/><path class="cls-3" d="M474.74,76.79c-1.66,0-2.89-1.69-2.54-3.25,.97-4.36,3.9-7.1,7.83-9,1.92-.93,4.04,.35,3.95,2.43-.16,4.07-4.36,9.15-8.85,9.82-.13,.02-.26,0-.39,0"/><path class="cls-1" d="M465.4,100.47c-.04,3.06-.41,6.03-2.61,8.44-.47,.52-.97,1.02-1.54,1.43-1.11,.8-2.31,.55-3.12-.52-1.5-1.97-1.37-4.16-1.07-6.41,.32-2.38,1.52-4.37,2.82-6.33,.98-1.47,3.05-1.54,4.09-.08,.73,1.02,1.22,2.2,1.81,3.32-.13,.05-.26,.1-.39,.14"/><path class="cls-2" d="M465.51,138.74c.02,1.67-.58,3.07-1.78,4.25-.98,.96-3.08,.46-4.05-.81-1.98-2.58-2.84-5.53-2.76-8.64,.04-1.43,.82-2.97,1.66-4.22,.6-.9,1.85-.8,2.76-.01,2.12,1.82,3.62,3.98,3.87,6.81,.08,.87,.21,1.74,.31,2.62"/><path class="cls-2" d="M472.24,165.69c.09-2.36,1.35-3.32,3.47-2.78,3.07,.78,5.22,2.73,6.71,5.34,.69,1.21,1.21,2.57,1.52,3.93,.47,2.07-1.37,3.53-3.46,2.9-3.9-1.18-6.03-4.16-7.88-7.38-.36-.62-.27-1.47-.36-2"/><path class="cls-3" d="M499.03,49.8c.62,.15,1.28,.2,1.85,.46,1.51,.67,1.86,1.58,1.14,3.05-1.94,3.94-6.02,6.42-10.53,6.62-1.19,.05-2.03-.58-2.56-1.57-.52-.98-.22-1.83,.45-2.7,1.95-2.55,4.54-4.24,7.53-5.41,.65-.25,1.37-.3,2.12-.46"/><path class="cls-2" d="M492.03,179.57c2.26,.36,4.76,1.04,6.74,2.89,.96,.9,1.87,1.87,2.75,2.85,1.41,1.58,.9,3.33-1.02,4.16-1.75,.76-3.31,.19-4.69-.61-1.96-1.13-3.8-2.48-5.55-3.89-.7-.56-1.17-1.5-1.5-2.36-.54-1.42,1.11-3.08,3.28-3.05"/><path class="cls-1" d="M459.13,92.3c.39-3.53,1.91-6.36,3.91-9.01,.15-.2,.34-.38,.49-.58,.75-.98,1.65-1.64,2.98-1.15,1.17,.42,1.96,1.67,1.64,2.96-.48,1.94-.95,3.92-1.8,5.72-.7,1.48-1.79,2.88-3.03,3.98-.6,.53-2.07,.62-2.89,.3-.64-.25-.89-1.45-1.31-2.22"/><path class="cls-2" d="M461.3,144.28c1.04,.73,1.99,1.16,2.58,1.86,1.13,1.34,2.39,2.73,2.98,4.32,.71,1.9,1.71,3.86,1.01,6.08-.31,.97-.89,1.53-1.76,1.63-.61,.07-1.5-.15-1.88-.57-2.39-2.61-4.3-5.5-4.74-9.07-.1-.83-.09-1.74,.18-2.51,.21-.59,.92-1,1.63-1.73"/><path class="cls-3" d="M528.45,44.5c-1.85-.26-3.72,.05-5.35-1.18-1.25-.94-1.38-2.16-.05-2.97,2.13-1.3,4.44-2.09,7.02-2.21,1.7-.08,3.32-.07,4.88,.66,1,.47,2.24,1,1.9,2.15-.29,.98-1.21,2.21-2.13,2.5-2,.63-4.17,.74-6.27,1.06"/><path class="cls-2" d="M547.84,195.29c.55,0,1.12,.09,1.65-.02,1.46-.29,2.37,.67,3.33,1.39,.82,.61,.53,1.79-.44,2.49-1.77,1.28-3.8,1.95-5.95,2.06-1.81,.09-3.64-.15-5.46-.27-.22-.01-.43-.13-.64-.22-2.44-1.19-2.45-2.25-.32-3.88,2.38-1.83,5.13-1.46,7.83-1.55"/><path class="cls-2" d="M527.86,195.05c1.91,.29,3.87,.41,5.7,.94,1.11,.32,2.1,1.19,3,1.97,.68,.59,.59,1.49-.19,1.95-.94,.55-1.99,1.04-3.05,1.27-3.74,.79-7.18-.1-10.35-2.1-1.09-.69-1.14-1.74-.15-2.55,1.47-1.21,2.2-1.39,5.03-1.47"/><path class="cls-2" d="M517.48,199.92c-3.72-.56-7.09-1.56-9.91-3.85-.4-.33-.76-1.09-.65-1.52,.13-.49,.79-1.12,1.28-1.18,1.33-.15,2.69-.06,4.04,0,2.96,.14,5.41,1.42,7.66,3.19,1.22,.97,1.16,2.27-.3,2.85-.7,.28-1.49,.36-2.12,.51"/><path class="cls-2" d="M488.3,183.77c0,1.17-.57,1.53-1.69,1.49-1.75-.07-2.79-1.27-3.9-2.25-1.79-1.57-3.49-3.26-5.09-5-.41-.45-.35-1.31-.51-1.99,.71-.14,1.51-.56,2.12-.38,4.14,1.26,7.22,3.75,8.95,7.69,.07,.17,.1,.36,.13,.43"/><path class="cls-2" d="M491.09,199.77c.68,.45,1.37,.88,2.05,1.32l.46,.06c-.85-.45-1.69-.91-2.52-1.38"/></g></svg>