<?xml version="1.0" encoding="UTF-8"?>
<svg id="Layer_1" xmlns="http://www.w3.org/2000/svg" version="1.1" viewBox="0 0 291.6 206.1">
  <!-- Generator: Adobe Illustrator 29.8.4, SVG Export Plug-In . SVG Version: 2.1.1 Build 6)  -->
  <defs>
    <style>
      .st0 {
        fill: #fff;
      }
    </style>
  </defs>
  <path class="st0" d="M262.3,82.7c0-6.3-.8-12.3-2.2-17.9l-19,12.8v52.7c13.4-10.2,21.2-27.4,21.2-47.7"/>
  <path class="st0" d="M233.6,135.1v-52.3l-3.3,2.2c-5,3.4-11.6,3-16.2-.8h0v56.1c7.2-.5,13.7-2.3,19.6-5.2"/>
  <path class="st0" d="M206.5,140.4v-62.4l-7.1-5.9c-1.7-1.4-4.1-1.5-5.9-.2l-6.5,4.6v59.1c5.8,2.8,12.4,4.5,19.6,4.9"/>
  <path class="st0" d="M158.9,96.5c2.8,14.6,9.9,26.7,20.6,34.5v-49.4l-20.6,14.9Z"/>
  <path class="st0" d="M209.9,166h0c47.9,0,80.8-35.4,80.8-83s-2.3-24.1-6.5-34.4l-6.9,13-12.9-6.8-3.1,2.1c3,7.8,4.6,16.6,4.6,26.1,0,35.1-22.1,61.6-56.1,61.6s-56.1-26.5-56.1-61.6,21.7-61.6,56.1-61.6,34.4,8.3,44.2,21.9h0v-15.5l16.5-1.5C256.2,9.9,235.1.1,209.7.1c-47.9,0-80.8,35.4-80.8,83s33,83,80.8,83"/>
  <path class="st0" d="M257.7,39.8l9.6-.9-42.1,28c-1.8,1.2-4.2,1.1-5.8-.3l-14.7-12.2c-4.7-3.9-11.5-4.2-16.4-.7l-30.2,20.4c-.1,1.1-.3,2.8-.4,5-.2,3.9,0,6.4,0,6.4l35.6-24.7c1.8-1.3,4.2-1.2,5.9.2l14.7,12.2c4.6,3.8,11.3,4.2,16.2.8l36.6-24.5h0l6.8-4.5-5,8.2,7.6,4,15.5-29.3h0l-33.9,3.1v8.7h0Z"/>
  <path class="st0" d="M1.1,162.7h115.9v-24.7H40.7l33-27.5c28.4-23.1,41.7-36.9,41.7-62.1v-.5C115.4,19.3,93.9,0,62.5,0S18.7,12.1,3.4,33.5l20.2,15.8c12.1-16,22.2-24.1,36.9-24.1s25.9,9.2,25.9,25-8,24.5-30,43.3L1.2,140.5v22.2h-.1Z"/>
  <path class="st0" d="M132.1,206c6.8,0,11.2-3.4,11.2-9.1h0c0-5.3-4-7.4-10.3-8.7-3.9-.9-4.8-1.4-4.8-2.7h0c0-1.1.9-1.9,2.8-1.9s5.2.9,7.8,2.7l3.9-5.4c-3-2.4-6.7-3.7-11.4-3.7s-10.8,3.7-10.8,8.9h0c0,5.8,4.6,7.4,10.5,8.8,3.8.9,4.7,1.5,4.7,2.7h0c0,1.3-1.1,2-3.2,2-3.2,0-6.2-1.2-9-3.3l-4.3,5.1c3.5,3.1,8.1,4.6,13,4.6M99.5,191.1v-6.7h5.1c2.5,0,4.2,1.1,4.2,3.3h0c0,2.1-1.6,3.4-4.1,3.4h-5.2ZM91.8,205.5h7.7v-8.4h3.4l5.6,8.4h8.9l-6.6-9.7c3.5-1.5,5.7-4.3,5.7-8.6h0c0-2.8-.8-4.9-2.5-6.6s-4.8-3-9.1-3h-13.1v27.8h0ZM69.5,194.5l3.1-7.9,3.1,7.9h-6.2ZM57.2,205.5h8.1l2-5h10.8l2,5h8.3l-11.8-28h-7.4l-11.8,28h-.2ZM32.1,205.5h22.6v-6.6h-14.9v-4.4h13.3v-6.1h-13.3v-4.3h14.7v-6.5h-22.4v27.8h0ZM10.6,205.5h7.7v-10.5l10.6-17.3h-8.6l-5.8,10.1-5.7-10.1H0l10.6,17.4v10.4Z"/>
  <path class="st0" d="M259.6,199.1c-4.3,0-7.2-3.5-7.2-7.5h0c0-4.1,2.8-7.5,7.1-7.5s7.1,3.5,7.1,7.5h0c0,4.1-2.8,7.5-7,7.5M259.5,206.1c8.6,0,15-6.5,15-14.5h0c0-8.1-6.4-14.5-14.9-14.5s-15,6.5-15,14.5h0c0,8.1,6.4,14.5,14.9,14.5M229.7,206c6.8,0,11.2-3.4,11.2-9.1h0c0-5.3-4-7.4-10.3-8.7-3.9-.9-4.8-1.4-4.8-2.7h0c0-1.1.9-1.9,2.8-1.9s5.2.9,7.8,2.7l3.9-5.4c-3-2.4-6.7-3.7-11.4-3.7s-10.8,3.7-10.8,8.9h0c0,5.8,4.6,7.4,10.5,8.8,3.8.9,4.7,1.5,4.7,2.7h0c0,1.3-1.1,2-3.2,2-3.2,0-6.2-1.2-9-3.3l-4.3,5.1c3.5,3.1,8.1,4.6,13,4.6M197.1,191.1v-6.7h5.1c2.5,0,4.2,1.1,4.2,3.3h0c0,2.1-1.5,3.4-4.1,3.4h-5.2ZM189.4,205.5h7.7v-8.4h3.4l5.6,8.4h8.9l-6.6-9.7c3.5-1.5,5.7-4.3,5.7-8.6h0c0-2.8-.8-4.9-2.5-6.6s-4.8-3-9.1-3h-13.2v27.8h.1Z"/>
  <path class="st0" d="M171.6,204.5h3.1v-10.9h3.6v-2.6h-3.6v-.7c0-1.4.6-2.1,1.8-2.1s1.2.1,1.8.3v-2.6c-.7-.2-1.4-.4-2.5-.4s-2.3.4-3.1,1.1-1.1,1.9-1.1,3.4v1h-1.7v2.6h1.7v10.9h0ZM160,202c-2.4,0-4.1-2-4.1-4.4h0c0-2.4,1.6-4.4,4.1-4.4s4.2,2,4.2,4.4h0c0,2.4-1.6,4.4-4.1,4.4M159.9,204.8c4.2,0,7.3-3.2,7.3-7.1h0c0-3.9-3.1-7.1-7.2-7.1s-7.3,3.2-7.3,7.1h0c0,3.9,3.1,7.1,7.2,7.1"/>
</svg>