<?xml version="1.0" encoding="UTF-8"?><svg id="Layer_2" xmlns="http://www.w3.org/2000/svg" xmlns:xlink="http://www.w3.org/1999/xlink" viewBox="0 0 574.4 213.6"><defs><style>.cls-1{fill:#1275bc;}.cls-2{fill:#f26522;}.cls-3{clip-path:url(#clippath-2);}.cls-4{clip-path:url(#clippath-1);}.cls-5{clip-path:url(#clippath-4);}.cls-6{fill:#f9ad81;}.cls-7{clip-path:url(#clippath);}.cls-8{fill:none;}.cls-9{clip-path:url(#clippath-3);}.cls-10{clip-path:url(#clippath-5);}</style><clipPath id="clippath"><path class="cls-8" d="M402,106.4c0,42.4,26,74.3,67.4,74.3s67.4-31.9,67.4-74.3-26.6-74.3-67.4-74.3c-41.4,0-67.4,31.6-67.4,74.3"/></clipPath><clipPath id="clippath-1"><path class="cls-8" d="M402,106.4c0,42.4,26,74.3,67.4,74.3s67.4-31.9,67.4-74.3-26.6-74.3-67.4-74.3c-41.4,0-67.4,31.6-67.4,74.3"/></clipPath><clipPath id="clippath-2"><path class="cls-8" d="M402,106.4c0,42.4,26,74.3,67.4,74.3s67.4-31.9,67.4-74.3-26.6-74.3-67.4-74.3c-41.4,0-67.4,31.6-67.4,74.3"/></clipPath><clipPath id="clippath-3"><path class="cls-8" d="M402,106.4c0,42.4,26,74.3,67.4,74.3s67.4-31.9,67.4-74.3-26.6-74.3-67.4-74.3c-41.4,0-67.4,31.6-67.4,74.3"/></clipPath><clipPath id="clippath-4"><rect class="cls-8" width="574.4" height="213.6"/></clipPath><clipPath id="clippath-5"><rect class="cls-8" width="574.4" height="213.6"/></clipPath></defs><g id="Layer_1-2"><g><g class="cls-7"><polygon class="cls-6" points="509.4 193.4 540.7 189.4 540.7 78.8 509.4 99.9 509.4 193.4"/></g><g class="cls-4"><path class="cls-2" d="M474.6,108.3h0v85.1h25.2V106.4l-4.2,2.9c-6.5,4.4-15.1,4-21-1"/></g><g class="cls-3"><path class="cls-6" d="M448.2,92.3l-8.4,5.9v95.2h25.2V100.2l-9.2-7.7c-2.2-1.7-5.3-1.8-7.6-.2"/></g><g class="cls-9"><polygon class="cls-2" points="403.4 194.9 430.1 193.4 430.1 105 403.4 124.3 403.4 194.9"/></g></g><g><g class="cls-5"><path class="cls-1" d="M83,103.1H31V30.7h52c22.3,0,38.4,14.5,38.4,36.2s-16.1,36.2-38.4,36.2m71.8,106.8l-52.9-82.7c26.3-3.4,51.4-23.2,51.4-60.4S126.4,3.3,87,3.3H0V209.8H31v-79.6h38.7l49.2,79.6h35.9v.1ZM217,56.9c0-17.3,15.8-29.1,38.7-29.1s44,7.4,59.7,24.1l18-22.9C315.1,10.4,290.1,.2,258.2,.2c-43,0-73.1,24.8-73.1,58.8,0,42.1,38.4,51.7,71.5,60.4,26.3,6.8,49.8,13,49.8,34.7,0,14.9-11.8,31.9-45.2,31.9-28.8,0-51.1-13.6-65-29.1l-17.6,23.8c17.6,19.5,44.6,32.8,81.4,32.8,55.7,0,78-30,78-62.2,0-44-39.3-54.5-73.1-63.5-25.6-6.4-47.9-12.3-47.9-30.9m330.5-23.2C529.1,12.7,501.9-.1,469.3-.1c-61.6,0-104,45.5-104,106.8s42.4,106.8,104,106.8,104-45.5,104-106.8c0-16-2.9-30.9-8.3-44.3l-8.9,16.8-16.6-8.8-4,2.7c3.8,10.1,5.9,21.4,5.9,33.6,0,45.2-28.5,79.3-72.1,79.3s-72.1-34.1-72.1-79.3,27.9-79.3,72.1-79.3c24.6,0,44.3,10.7,56.9,28.1l.1-.1v-19.9l21.2-1.8Z"/></g><g class="cls-10"><path class="cls-2" d="M530.8,39.9v11.2l12.3-1.2-54.2,36.1c-2.3,1.6-5.4,1.4-7.5-.4l-18.9-15.7c-6-5-14.7-5.4-21.2-.8l-38.9,26.3s-.2,2.2-.5,6.4c-.3,5.1-.1,8.2-.1,8.2l45.9-31.8c2.3-1.6,5.4-1.5,7.6,.3l18.9,15.7c5.9,4.9,14.5,5.4,20.9,1l47-31.5h0l8.7-5.8-6.4,10.6,9.8,5.2,19.9-37.7-43.3,3.9Z"/></g></g></g></svg>